<?xml version="1.0" encoding="UTF-8" standalone="no"?>
<svg width="93px" height="93px" viewBox="0 0 93 93" version="1.1" xmlns="http://www.w3.org/2000/svg" xmlns:xlink="http://www.w3.org/1999/xlink">
    <!-- Generator: Sketch 42 (36781) - http://www.bohemiancoding.com/sketch -->
    <title>Group 3</title>
    <desc>Created with Sketch.</desc>
    <defs></defs>
    <g id="Page-1" stroke="none" stroke-width="1" fill="none" fill-rule="evenodd">
        <g id="Group-3">
            <g id="innovu-logo-white-text-icon">
                <g id="Group-2">
                    <g id="Page-1">
                        <g id="Group-2">
                            <g id="logo-lens-full-color" fill-rule="nonzero">
                                <g id="MAIN_ICON">
                                    <path d="M67.55785,9.26925373 C56.8678355,0.590208672 42.610024,-2.20971158 29.465,1.78865672 L29.465,31.4185075 L67.55785,9.26925373 Z" id="Shape" fill="#3EB39F"></path>
                                    <path d="M26.56,47.0985075 L26.56,2.79164179 C13.7517168,7.78360032 4.21724406,18.822247 1.08315,32.2877612 L26.56,47.0985075 Z" id="Shape" fill="#3EB39F"></path>
                                    <path d="M82.50615,48.2602985 C82.8357959,46.1198863 83.0009029,43.9570456 83,41.7910448 C83.0177746,30.2291029 78.2649069,19.1793683 69.8777,11.2835821 L44.405,26.1068657 L54.73435,32.1122388 L82.50615,48.2602985 Z" id="Shape" fill="#97798D"></path>
                                    <path d="M56.44,36.4835821 L56.44,80.7820896 C69.2472169,75.7943007 78.7830731,64.7605424 81.921,51.2985075 L56.44,36.4835821 Z" id="Shape" fill="#97798D"></path>
                                    <path d="M26.56,50.4752239 L0.49385,35.321791 C0.164220462,37.4622052 -0.000886404375,39.6250445 -6.97547217e-15,41.7910448 C-0.0177745541,53.3529867 4.73509306,64.4027212 13.1223,72.2985075 L38.595,57.4752239 L26.56,50.4752239 Z" id="Shape" fill="#4892C7"></path>
                                    <path d="M48.4886,55.1014925 L41.5,59.1635821 L41.5,59.1635821 L15.44215,74.3128358 C26.1305888,82.9952898 40.3901643,85.7955565 53.535,81.7934328 L53.535,52.1677612 L48.4886,55.1014925 Z" id="Shape" fill="#4892C7"></path>
                                </g>
                            </g>
                        </g>
                    </g>
                </g>
            </g>
        </g>
    </g>
</svg>